# xmcd
#
# Track frame offsets: 
#        150
#        16411
#        42317
#        67233
#        91624
#        120639
#        138983
#        160116
#        172955
#        193342
#        215742
#
# Disc length: 3170 seconds
#
# Revision: 0
# Processed by: cddbd v1.5.2PL0 Copyright (c) Steve Scherf et al.
# Submitted via: ExactAudioCopy v1.2
#
DISCID=9a0c600b
DTITLE=Sherman Holmes - The Sherman Holmes Project: The Richmond Sessi
DTITLE=ons
DYEAR=2017
DGENRE=Blues
TTITLE0=Rock Of Ages
TTITLE1=Liza Jane
TTITLE2=Don't Do It
TTITLE3=I Want Jesus
TTITLE4=Breaking Up Somebody's Home
TTITLE5=Dark End Of The Street
TTITLE6=Lonesome Pines
TTITLE7=Green River
TTITLE8=Wide River
TTITLE9=White Dove
TTITLE10=Homeless Child
EXTD=
EXTT0=
EXTT1=
EXTT2=
EXTT3=
EXTT4=
EXTT5=
EXTT6=
EXTT7=
EXTT8=
EXTT9=
EXTT10=
PLAYORDER=
